<?xml version="1.0" encoding="utf-8"?>
<!-- Generator: Adobe Illustrator 26.0.0, SVG Export Plug-In . SVG Version: 6.00 Build 0)  -->
<svg version="1.1" id="web-grid" xmlns="http://www.w3.org/2000/svg" xmlns:xlink="http://www.w3.org/1999/xlink" x="0px" y="0px"
	 viewBox="0 0 24 24" style="enable-background:new 0 0 24 24;" xml:space="preserve">
<style type="text/css">
	.st0{fill-rule:evenodd;clip-rule:evenodd;fill:#333333;}
</style>
<g>
	<g>
		<path class="st0" d="M10.7,2h3c0.2,0,0.4,0.2,0.4,0.4c0,0,0,0,0,0v1h4.7C18.9,3.2,19,3,19.2,2.8l0,0c0.6-0.6,1.7-0.6,2.3,0
			c0,0,0,0,0,0l0,0c0.6,0.6,0.6,1.7,0,2.3c0,0,0,0,0,0l0,0c-0.6,0.6-1.7,0.6-2.3,0c0,0,0,0,0,0l0,0c-0.2-0.2-0.3-0.4-0.4-0.6h-2.4
			c0.8,0.5,1.5,1,2.1,1.7c1.2,1.4,2,3,2.3,4.8h0.7c0.3,0,0.5,0.2,0.5,0.5c0,0,0,0,0,0v2.2c0,0.3-0.2,0.5-0.5,0.5c0,0,0,0,0,0h-2.2
			c-0.3,0-0.5-0.2-0.5-0.5v-2.2c0-0.3,0.2-0.5,0.5-0.5h0.5c-0.3-1.5-1-3-2.1-4.1c-1-1.1-2.3-1.9-3.7-2.3v0.9c0,0.2-0.2,0.4-0.4,0.4
			c0,0,0,0,0,0h-3c-0.2,0-0.4-0.2-0.4-0.4c0,0,0,0,0,0V4.6C8.8,5,7.5,5.8,6.5,7c-1,1.1-1.7,2.5-2,4h0.5c0.3,0,0.5,0.2,0.5,0.5l0,0
			v2.2c0,0.3-0.2,0.5-0.5,0.5c0,0,0,0,0,0H2.9c-0.3,0-0.5-0.2-0.5-0.5c0,0,0,0,0,0v-2.2c0-0.3,0.2-0.5,0.5-0.5c0,0,0,0,0,0h0.7
			c0.3-1.7,1.1-3.4,2.2-4.7C6.4,5.6,7.2,5,8,4.5H5.2C5.1,4.7,5,4.9,4.8,5.1l0,0C4.5,5.4,4.1,5.6,3.6,5.6c-0.4,0-0.8-0.2-1.2-0.5l0,0
			c-0.6-0.6-0.6-1.7,0-2.3c0,0,0,0,0,0l0,0c0.6-0.6,1.7-0.6,2.3,0c0,0,0,0,0,0l0,0C5,3,5.1,3.2,5.2,3.4h5.1v-1
			C10.3,2.2,10.5,2,10.7,2C10.7,2,10.7,2,10.7,2z"/>
		<path class="st0" d="M16.6,16.3l-1.6,4l-5.7-0.1l-1.6-3.9c1.4-2.4,2.8-5.4,3.5-8L12,8.3l0,7c-0.4,0.1-0.6,0.6-0.4,0.9
			c0.1,0.4,0.6,0.6,0.9,0.4s0.6-0.6,0.4-0.9c-0.1-0.2-0.3-0.4-0.5-0.5l0-7l0.9,0C13.9,11,15.3,13.9,16.6,16.3L16.6,16.3z"/>
		<rect x="9.4" y="20.9" class="st0" width="5.6" height="1.1"/>
	</g>
</g>
</svg>
