<?xml version="1.0" encoding="utf-8"?>
<!-- Generator: Adobe Illustrator 26.0.0, SVG Export Plug-In . SVG Version: 6.00 Build 0)  -->
<svg version="1.1" id="Layer_1" xmlns="http://www.w3.org/2000/svg" xmlns:xlink="http://www.w3.org/1999/xlink" x="0px" y="0px"
	 viewBox="0 0 618.35 122.82" style="enable-background:new 0 0 618.35 122.82;" xml:space="preserve">
<style type="text/css">
	.st0{fill:#0F0D09;}
	.st1{fill:#FDB716;}
	.st2{fill:none;stroke:#FFFFFF;stroke-width:6;stroke-miterlimit:10;}
	.st3{fill:none;stroke:#000000;stroke-width:8;stroke-miterlimit:10;}
	.st4{fill:#FFFFFF;}
	.st5{fill:none;stroke:#FFFFFF;stroke-width:3;stroke-miterlimit:10;}
	.st6{fill:none;stroke:#FFFFFF;stroke-width:6;stroke-linecap:round;stroke-miterlimit:10;}
	.st7{fill:none;stroke:#000000;stroke-width:8;stroke-linecap:round;stroke-miterlimit:10;}
	.st8{fill:none;stroke:#000000;stroke-width:6;stroke-miterlimit:10;}
	.st9{fill:none;stroke:#FFFFFF;stroke-width:2;stroke-miterlimit:10;}
	.st10{fill:none;stroke:#000000;stroke-width:6;stroke-linecap:round;stroke-miterlimit:10;}
</style>
<g>
	<g>
		<path class="st0" d="M46.64,111.54c-0.23,0-0.37-0.01-0.41-0.01l0.31-5.15c0.18,0.01,4.4,0.16,8.18-3.52
			c4.21-4.1,6.33-11.57,6.14-21.61c-0.14-7.03-0.25-13.93-0.33-20.49l-0.03-2.61h0c-0.06-4.47-0.15-9.42-0.26-14.74
			c-0.23-11.76,2.4-20.35,7.82-25.52c5.45-5.21,11.71-4.87,11.97-4.85l-0.34,5.15c-0.16-0.01-4.37-0.16-8.16,3.51
			c-4.21,4.09-6.33,11.56-6.13,21.6c0.13,6.39,0.23,12.24,0.29,17.39l0.03,2.61h0c0.08,5.76,0.18,11.75,0.3,17.84
			c0.23,11.76-2.4,20.35-7.82,25.52C53.47,111.2,48.14,111.54,46.64,111.54z"/>
	</g>
	<g>
		<rect x="79.61" y="10.05" class="st0" width="11.13" height="11.13"/>
	</g>
	<g>
		<rect x="39.23" y="103.39" class="st0" width="11.13" height="11.13"/>
	</g>
	<g>
		<rect x="13.07" y="14.65" class="st0" width="66.79" height="1.94"/>
	</g>
	<g>
		
			<rect x="9.61" y="12.17" transform="matrix(0.7071 0.7071 -0.7071 0.7071 14.8716 -4.6652)" class="st0" width="6.91" height="6.91"/>
	</g>
	<g>
		<path class="st0" d="M70.81,68.48H55.24c-1.07,0-1.94-0.87-1.94-1.94s0.87-1.94,1.94-1.94h15.57c1.07,0,1.94,0.87,1.94,1.94
			S71.88,68.48,70.81,68.48z"/>
	</g>
	<g>
		<path class="st1" d="M79.4,102.27c-0.89,0-1.76-0.46-2.24-1.29c-0.71-1.23-0.29-2.81,0.94-3.52l48.37-27.93
			c1.3-0.75,1.45-2,1.45-2.5c0-0.5-0.14-1.75-1.45-2.5L78.11,36.59c-1.23-0.71-1.66-2.29-0.94-3.52c0.71-1.23,2.29-1.66,3.52-0.94
			l48.37,27.93c2.52,1.46,4.03,4.06,4.03,6.97c0,2.91-1.5,5.52-4.03,6.97l-48.37,27.93C80.28,102.16,79.84,102.27,79.4,102.27z"/>
	</g>
	<g>
		<path class="st1" d="M104.76,65.27l-19.3-11.14c-1.47-0.85-3.3,0.21-3.3,1.91v22.28c0,1.69,1.83,2.75,3.3,1.91l19.3-11.14
			C106.23,68.23,106.23,66.11,104.76,65.27l-19.3-11.14c-1.47-0.85-3.3,0.21-3.3,1.91v22.28c0,1.69,1.83,2.75,3.3,1.91l19.3-11.14
			C106.23,68.23,106.23,66.11,104.76,65.27z"/>
	</g>
</g>
<g>
	<path class="st0" d="M190.43,53.17h-25.19v26.52h-10.88V17.1h39.76v8.77h-28.89v18.61h25.19V53.17z"/>
	<path class="st0" d="M229.5,65.12h-24.25l-5.07,14.57h-11.31l23.64-62.59h9.76l23.69,62.59h-11.35L229.5,65.12z M208.31,56.35
		h18.14l-9.07-25.96L208.31,56.35z"/>
	<path class="st0" d="M264.54,79.69H253.7V17.1h10.83V79.69z"/>
	<path class="st0" d="M288.14,71.01h33.44v8.68h-46.6v-7.05l32.37-46.77H275.2V17.1h45.35v6.88L288.14,71.01z"/>
	<path class="st0" d="M387.87,65.12h-24.25l-5.07,14.57h-11.31l23.64-62.59h9.76l23.69,62.59h-11.35L387.87,65.12z M366.68,56.35
		h18.14l-9.07-25.96L366.68,56.35z"/>
	<path class="st0" d="M422.91,79.69h-10.83V17.1h10.83V79.69z"/>
	<path class="st0" d="M461.9,17.1h10.83v43.89c0,5.99-1.87,10.75-5.61,14.27s-8.68,5.29-14.81,5.29c-6.53,0-11.58-1.65-15.13-4.94
		c-3.55-3.29-5.33-7.88-5.33-13.76h10.83c0,3.33,0.82,5.83,2.47,7.5c1.65,1.68,4.03,2.51,7.16,2.51c2.92,0,5.25-0.97,6.99-2.9
		s2.6-4.61,2.6-8.02V17.1z"/>
	<path class="st0" d="M519.24,65.12H495l-5.07,14.57h-11.31l23.64-62.59h9.76l23.69,62.59h-11.35L519.24,65.12z M498.05,56.35h18.14
		l-9.07-25.96L498.05,56.35z"/>
	<path class="st0" d="M553.03,71.01h33.44v8.68h-46.6v-7.05l32.37-46.77h-32.15V17.1h45.35v6.88L553.03,71.01z"/>
	<path class="st0" d="M607.28,79.69h-10.83V17.1h10.83V79.69z"/>
</g>
<g>
	<path class="st0" d="M154.35,106.25V93.2H158c1.07,0,2.03,0.24,2.88,0.73c0.85,0.49,1.51,1.18,1.99,2.09
		c0.48,0.91,0.71,1.94,0.71,3.1v1.2c0,1.17-0.24,2.2-0.71,3.1c-0.47,0.9-1.14,1.6-2,2.09c-0.86,0.49-1.84,0.74-2.96,0.74H154.35z
		 M155.46,94.13v11.19h2.47c1.38,0,2.48-0.46,3.31-1.37c0.83-0.91,1.25-2.15,1.25-3.7V99.1c0-1.5-0.41-2.7-1.23-3.61
		s-1.9-1.36-3.24-1.36H155.46z"/>
	<path class="st0" d="M178.7,106.43c-0.83,0-1.57-0.2-2.24-0.61c-0.67-0.41-1.19-0.97-1.56-1.7c-0.37-0.73-0.56-1.54-0.56-2.44
		v-0.39c0-0.93,0.18-1.77,0.54-2.52s0.87-1.33,1.51-1.76c0.65-0.43,1.35-0.64,2.1-0.64c1.18,0,2.11,0.4,2.8,1.21
		c0.69,0.8,1.04,1.9,1.04,3.29v0.6h-6.92v0.21c0,1.1,0.32,2.02,0.95,2.75c0.63,0.73,1.42,1.1,2.38,1.1c0.57,0,1.08-0.1,1.52-0.31
		s0.84-0.54,1.2-1l0.67,0.51C181.35,105.86,180.2,106.43,178.7,106.43z M178.5,97.28c-0.81,0-1.49,0.3-2.04,0.89
		s-0.89,1.39-1.01,2.38h5.82v-0.12c-0.03-0.93-0.3-1.69-0.8-2.28S179.32,97.28,178.5,97.28z"/>
	<path class="st0" d="M199.06,103.79c0-0.53-0.21-0.96-0.64-1.28c-0.43-0.32-1.07-0.58-1.93-0.76c-0.86-0.18-1.53-0.39-2-0.63
		s-0.83-0.52-1.06-0.87c-0.23-0.34-0.35-0.75-0.35-1.24c0-0.77,0.32-1.4,0.96-1.9c0.64-0.5,1.46-0.75,2.46-0.75
		c1.08,0,1.95,0.27,2.6,0.8s0.98,1.23,0.98,2.09H199c0-0.57-0.24-1.04-0.71-1.42c-0.48-0.38-1.08-0.57-1.8-0.57
		c-0.71,0-1.27,0.16-1.7,0.47c-0.43,0.31-0.64,0.72-0.64,1.22c0,0.48,0.18,0.86,0.53,1.12c0.36,0.27,1,0.51,1.95,0.73
		c0.94,0.22,1.65,0.46,2.12,0.71c0.47,0.25,0.82,0.55,1.04,0.91c0.23,0.35,0.34,0.78,0.34,1.28c0,0.82-0.33,1.47-0.99,1.96
		c-0.66,0.49-1.52,0.74-2.59,0.74c-1.13,0-2.05-0.27-2.75-0.82c-0.7-0.55-1.05-1.24-1.05-2.08h1.08c0.04,0.63,0.31,1.12,0.79,1.47
		s1.13,0.52,1.93,0.52c0.75,0,1.35-0.16,1.81-0.49C198.83,104.7,199.06,104.29,199.06,103.79z"/>
	<path class="st0" d="M211.3,93.75c0-0.2,0.07-0.37,0.2-0.51s0.31-0.21,0.54-0.21s0.41,0.07,0.54,0.21c0.13,0.14,0.2,0.31,0.2,0.51
		s-0.07,0.37-0.2,0.51c-0.13,0.14-0.32,0.21-0.54,0.21s-0.41-0.07-0.54-0.21S211.3,93.95,211.3,93.75z M212.56,106.25h-1.08v-9.7
		h1.08V106.25z"/>
	<path class="st0" d="M223.86,101.31c0-1.52,0.34-2.72,1.01-3.61c0.67-0.89,1.58-1.33,2.74-1.33c1.32,0,2.33,0.53,3.01,1.58
		l0.05-1.4h1v9.5c0,1.25-0.35,2.24-1.05,2.97c-0.7,0.73-1.65,1.09-2.84,1.09c-0.68,0-1.32-0.15-1.93-0.45
		c-0.61-0.3-1.1-0.7-1.45-1.21l0.6-0.65c0.76,0.93,1.66,1.4,2.71,1.4c0.9,0,1.6-0.26,2.1-0.79c0.5-0.53,0.76-1.26,0.78-2.2V105
		c-0.69,0.96-1.69,1.44-3,1.44c-1.12,0-2.03-0.45-2.71-1.35c-0.68-0.9-1.02-2.11-1.02-3.63V101.31z M224.95,101.5
		c0,1.24,0.25,2.21,0.74,2.93c0.5,0.71,1.2,1.07,2.1,1.07c1.32,0,2.26-0.59,2.81-1.78v-4.51c-0.25-0.62-0.61-1.1-1.08-1.42
		c-0.47-0.33-1.04-0.49-1.7-0.49c-0.9,0-1.61,0.35-2.11,1.06S224.95,100.12,224.95,101.5z"/>
	<path class="st0" d="M244.32,96.55l0.04,1.66c0.36-0.6,0.82-1.05,1.36-1.37s1.14-0.47,1.8-0.47c1.04,0,1.81,0.29,2.32,0.88
		c0.51,0.59,0.76,1.46,0.77,2.64v6.37h-1.07v-6.38c-0.01-0.87-0.19-1.51-0.55-1.94s-0.94-0.64-1.74-0.64
		c-0.66,0-1.25,0.21-1.76,0.62c-0.51,0.42-0.89,0.98-1.13,1.68v6.64h-1.07v-9.7H244.32z"/>
	<path class="st0" d="M277.7,99.13c-0.52-0.63-0.9-1.19-1.13-1.68s-0.35-0.98-0.35-1.47c0-0.92,0.27-1.64,0.82-2.17
		s1.27-0.8,2.19-0.8c0.83,0,1.5,0.24,2.02,0.72c0.51,0.48,0.77,1.09,0.77,1.83c0,0.86-0.5,1.71-1.49,2.54l-1.43,1.11l3.59,4.18
		c0.54-0.88,0.82-1.87,0.82-2.99h1c0,1.48-0.38,2.74-1.15,3.76l1.79,2.08h-1.29l-1.13-1.31c-0.47,0.47-1.02,0.83-1.64,1.09
		c-0.62,0.26-1.27,0.39-1.96,0.39c-1.24,0-2.23-0.32-2.96-0.96s-1.09-1.49-1.09-2.55c0-0.63,0.19-1.23,0.56-1.8
		c0.37-0.56,1.03-1.2,1.97-1.91L277.7,99.13z M279.1,105.53c0.54,0,1.07-0.12,1.58-0.34c0.51-0.23,0.97-0.56,1.38-0.98l-3.65-4.23
		l-0.12-0.13l-0.41,0.31c-1.17,0.96-1.76,1.88-1.76,2.78c0,0.78,0.27,1.41,0.81,1.89C277.46,105.29,278.19,105.53,279.1,105.53z
		 M277.29,95.95c0,0.73,0.4,1.59,1.21,2.58l1.17-0.9c0.38-0.28,0.7-0.58,0.94-0.91c0.25-0.33,0.37-0.71,0.37-1.16
		c0-0.47-0.16-0.86-0.48-1.17c-0.32-0.31-0.75-0.47-1.29-0.47c-0.59,0-1.05,0.19-1.4,0.57C277.46,94.87,277.29,95.36,277.29,95.95z"
		/>
	<path class="st0" d="M316.17,102.58h-5.93l-1.34,3.67h-1.16l4.94-13.06h1.05l4.94,13.06h-1.15L316.17,102.58z M310.58,101.65h5.24
		l-2.62-7.11L310.58,101.65z"/>
	<path class="st0" d="M330.18,96.55l0.04,1.66c0.36-0.6,0.82-1.05,1.36-1.37s1.14-0.47,1.8-0.47c1.04,0,1.81,0.29,2.32,0.88
		c0.51,0.59,0.76,1.46,0.77,2.64v6.37h-1.07v-6.38c-0.01-0.87-0.19-1.51-0.55-1.94s-0.94-0.64-1.74-0.64
		c-0.66,0-1.25,0.21-1.76,0.62c-0.51,0.42-0.89,0.98-1.13,1.68v6.64h-1.07v-9.7H330.18z"/>
	<path class="st0" d="M348,93.75c0-0.2,0.07-0.37,0.2-0.51s0.31-0.21,0.54-0.21s0.41,0.07,0.54,0.21c0.13,0.14,0.2,0.31,0.2,0.51
		s-0.07,0.37-0.2,0.51c-0.13,0.14-0.32,0.21-0.54,0.21s-0.41-0.07-0.54-0.21S348,93.95,348,93.75z M349.26,106.25h-1.08v-9.7h1.08
		V106.25z"/>
	<path class="st0" d="M361.97,96.55l0.04,1.58c0.36-0.59,0.81-1.03,1.34-1.32c0.54-0.29,1.14-0.44,1.79-0.44
		c1.53,0,2.5,0.63,2.91,1.88c0.35-0.6,0.81-1.07,1.39-1.39c0.58-0.33,1.22-0.49,1.92-0.49c2.08,0,3.14,1.14,3.18,3.41v6.47h-1.08
		v-6.39c-0.01-0.87-0.19-1.51-0.56-1.93c-0.37-0.42-0.97-0.63-1.8-0.63c-0.77,0.01-1.42,0.26-1.96,0.75s-0.83,1.08-0.89,1.78v6.42
		h-1.08v-6.47c-0.01-0.83-0.2-1.45-0.59-1.86s-0.98-0.61-1.78-0.61c-0.68,0-1.26,0.19-1.74,0.58s-0.84,0.96-1.08,1.72v6.65h-1.08
		v-9.7H361.97z"/>
	<path class="st0" d="M392.21,106.25c-0.11-0.3-0.18-0.76-0.21-1.35c-0.38,0.49-0.86,0.87-1.44,1.13s-1.2,0.4-1.85,0.4
		c-0.93,0-1.69-0.26-2.26-0.78c-0.58-0.52-0.87-1.18-0.87-1.97c0-0.95,0.39-1.69,1.18-2.24s1.88-0.83,3.29-0.83h1.95v-1.1
		c0-0.69-0.21-1.24-0.64-1.64s-1.05-0.6-1.87-0.6c-0.75,0-1.37,0.19-1.86,0.57s-0.74,0.84-0.74,1.38l-1.08-0.01
		c0-0.77,0.36-1.44,1.08-2c0.72-0.57,1.6-0.85,2.65-0.85c1.08,0,1.94,0.27,2.56,0.81c0.62,0.54,0.95,1.3,0.96,2.26v4.59
		c0,0.94,0.1,1.64,0.3,2.11v0.11H392.21z M388.84,105.48c0.72,0,1.36-0.17,1.92-0.52c0.57-0.35,0.98-0.81,1.23-1.39v-2.13h-1.92
		c-1.07,0.01-1.91,0.21-2.51,0.59c-0.6,0.38-0.91,0.9-0.91,1.57c0,0.54,0.2,1,0.61,1.35C387.66,105.3,388.19,105.48,388.84,105.48z"
		/>
	<path class="st0" d="M406.4,94.07v2.48h2.01v0.88h-2.01v6.47c0,0.54,0.1,0.94,0.29,1.2c0.19,0.26,0.52,0.4,0.97,0.4
		c0.18,0,0.47-0.03,0.87-0.09l0.04,0.87c-0.28,0.1-0.66,0.15-1.15,0.15c-0.74,0-1.27-0.21-1.6-0.64s-0.5-1.06-0.5-1.89v-6.47h-1.79
		v-0.88h1.79v-2.48H406.4z"/>
	<path class="st0" d="M423.21,106.43c-0.83,0-1.57-0.2-2.24-0.61c-0.67-0.41-1.19-0.97-1.56-1.7c-0.37-0.73-0.56-1.54-0.56-2.44
		v-0.39c0-0.93,0.18-1.77,0.54-2.52s0.87-1.33,1.51-1.76c0.65-0.43,1.35-0.64,2.1-0.64c1.18,0,2.11,0.4,2.8,1.21
		c0.69,0.8,1.04,1.9,1.04,3.29v0.6h-6.92v0.21c0,1.1,0.32,2.02,0.95,2.75c0.63,0.73,1.42,1.1,2.38,1.1c0.57,0,1.08-0.1,1.52-0.31
		s0.84-0.54,1.2-1l0.67,0.51C425.85,105.86,424.71,106.43,423.21,106.43z M423.01,97.28c-0.81,0-1.49,0.3-2.04,0.89
		s-0.89,1.39-1.01,2.38h5.82v-0.12c-0.03-0.93-0.3-1.69-0.8-2.28S423.82,97.28,423.01,97.28z"/>
	<path class="st0" d="M460.53,102.18c-0.15,1.38-0.64,2.43-1.48,3.16c-0.83,0.73-1.94,1.09-3.33,1.09c-0.97,0-1.83-0.24-2.57-0.73
		s-1.32-1.17-1.73-2.06c-0.41-0.89-0.61-1.9-0.62-3.04v-1.69c0-1.16,0.2-2.19,0.61-3.08c0.41-0.9,0.99-1.59,1.75-2.08
		c0.76-0.49,1.64-0.73,2.63-0.73c1.4,0,2.5,0.38,3.31,1.13c0.81,0.75,1.28,1.8,1.41,3.13h-1.11c-0.28-2.22-1.48-3.33-3.61-3.33
		c-1.18,0-2.13,0.44-2.83,1.33c-0.7,0.89-1.05,2.11-1.05,3.67v1.6c0,1.51,0.34,2.71,1.03,3.61s1.61,1.35,2.78,1.35
		c1.15,0,2.02-0.28,2.61-0.83c0.59-0.55,0.95-1.38,1.08-2.49H460.53z"/>
	<path class="st0" d="M476.26,97.46c-0.23-0.04-0.47-0.06-0.73-0.06c-0.67,0-1.24,0.19-1.7,0.56c-0.46,0.37-0.79,0.92-0.99,1.63
		v6.66h-1.07v-9.7h1.05l0.02,1.54c0.57-1.15,1.48-1.72,2.74-1.72c0.3,0,0.54,0.04,0.71,0.12L476.26,97.46z"/>
	<path class="st0" d="M490.36,106.43c-0.83,0-1.57-0.2-2.24-0.61c-0.67-0.41-1.19-0.97-1.56-1.7c-0.37-0.73-0.56-1.54-0.56-2.44
		v-0.39c0-0.93,0.18-1.77,0.54-2.52s0.87-1.33,1.51-1.76c0.65-0.43,1.35-0.64,2.1-0.64c1.18,0,2.11,0.4,2.8,1.21
		c0.69,0.8,1.04,1.9,1.04,3.29v0.6h-6.92v0.21c0,1.1,0.32,2.02,0.95,2.75c0.63,0.73,1.42,1.1,2.38,1.1c0.57,0,1.08-0.1,1.52-0.31
		s0.84-0.54,1.2-1l0.67,0.51C493,105.86,491.86,106.43,490.36,106.43z M490.16,97.28c-0.81,0-1.49,0.3-2.04,0.89
		s-0.89,1.39-1.01,2.38h5.82v-0.12c-0.03-0.93-0.3-1.69-0.8-2.28S490.97,97.28,490.16,97.28z"/>
	<path class="st0" d="M511.03,106.25c-0.11-0.3-0.18-0.76-0.21-1.35c-0.38,0.49-0.86,0.87-1.44,1.13s-1.2,0.4-1.85,0.4
		c-0.93,0-1.69-0.26-2.26-0.78c-0.58-0.52-0.87-1.18-0.87-1.97c0-0.95,0.39-1.69,1.18-2.24s1.88-0.83,3.29-0.83h1.95v-1.1
		c0-0.69-0.21-1.24-0.64-1.64s-1.05-0.6-1.87-0.6c-0.75,0-1.37,0.19-1.86,0.57s-0.74,0.84-0.74,1.38l-1.08-0.01
		c0-0.77,0.36-1.44,1.08-2c0.72-0.57,1.6-0.85,2.65-0.85c1.08,0,1.94,0.27,2.56,0.81c0.62,0.54,0.95,1.3,0.96,2.26v4.59
		c0,0.94,0.1,1.64,0.3,2.11v0.11H511.03z M507.66,105.48c0.72,0,1.36-0.17,1.92-0.52c0.57-0.35,0.98-0.81,1.23-1.39v-2.13h-1.92
		c-1.07,0.01-1.91,0.21-2.51,0.59c-0.6,0.38-0.91,0.9-0.91,1.57c0,0.54,0.2,1,0.61,1.35C506.48,105.3,507.01,105.48,507.66,105.48z"
		/>
	<path class="st0" d="M525.22,94.07v2.48h2.01v0.88h-2.01v6.47c0,0.54,0.1,0.94,0.29,1.2c0.19,0.26,0.52,0.4,0.97,0.4
		c0.18,0,0.47-0.03,0.87-0.09l0.04,0.87c-0.28,0.1-0.66,0.15-1.15,0.15c-0.74,0-1.27-0.21-1.6-0.64s-0.5-1.06-0.5-1.89v-6.47h-1.79
		v-0.88h1.79v-2.48H525.22z"/>
	<path class="st0" d="M538.21,93.75c0-0.2,0.07-0.37,0.2-0.51s0.31-0.21,0.54-0.21s0.41,0.07,0.54,0.21c0.13,0.14,0.2,0.31,0.2,0.51
		s-0.07,0.37-0.2,0.51c-0.13,0.14-0.32,0.21-0.54,0.21s-0.41-0.07-0.54-0.21S538.21,93.95,538.21,93.75z M539.47,106.25h-1.08v-9.7
		h1.08V106.25z"/>
	<path class="st0" d="M554.22,104.77l2.95-8.22h1.1l-3.62,9.7h-0.87l-3.64-9.7h1.1L554.22,104.77z"/>
	<path class="st0" d="M572.49,106.43c-0.83,0-1.57-0.2-2.24-0.61c-0.67-0.41-1.19-0.97-1.56-1.7c-0.37-0.73-0.56-1.54-0.56-2.44
		v-0.39c0-0.93,0.18-1.77,0.54-2.52s0.87-1.33,1.51-1.76c0.65-0.43,1.35-0.64,2.1-0.64c1.18,0,2.11,0.4,2.8,1.21
		c0.69,0.8,1.04,1.9,1.04,3.29v0.6h-6.92v0.21c0,1.1,0.32,2.02,0.95,2.75c0.63,0.73,1.42,1.1,2.38,1.1c0.57,0,1.08-0.1,1.52-0.31
		s0.84-0.54,1.2-1l0.67,0.51C575.14,105.86,573.99,106.43,572.49,106.43z M572.29,97.28c-0.81,0-1.49,0.3-2.04,0.89
		s-0.89,1.39-1.01,2.38h5.82v-0.12c-0.03-0.93-0.3-1.69-0.8-2.28S573.11,97.28,572.29,97.28z"/>
	<path class="st0" d="M588.24,106.25h-1.08V92.48h1.08V106.25z"/>
	<path class="st0" d="M603.04,104.71l2.83-8.16h1.16l-4.14,11.35l-0.21,0.5c-0.53,1.18-1.35,1.77-2.47,1.77
		c-0.26,0-0.53-0.04-0.82-0.13l-0.01-0.89l0.56,0.05c0.53,0,0.95-0.13,1.28-0.39c0.33-0.26,0.6-0.71,0.83-1.34l0.47-1.31l-3.66-9.62
		h1.17L603.04,104.71z"/>
</g>
</svg>
