<?xml version="1.0" encoding="utf-8"?>
<!-- Generator: Adobe Illustrator 26.0.0, SVG Export Plug-In . SVG Version: 6.00 Build 0)  -->
<svg version="1.1" id="web-grid" xmlns="http://www.w3.org/2000/svg" xmlns:xlink="http://www.w3.org/1999/xlink" x="0px" y="0px"
	 viewBox="0 0 24 24" style="enable-background:new 0 0 24 24;" xml:space="preserve">
<style type="text/css">
	.st0{fill:#333333;}
</style>
<g>
	<path class="st0" d="M17.6,2c0.4,0.1,0.8,0.2,1.2,0.5c0.3,0.3,0.6,0.7,0.7,1.1c0.2,0.7,0.4,1.4,0.6,2.1c0.1,0.4,0,0.6-0.4,0.7
		c-2.1,0.6-4.2,1.2-6.2,1.8c-2,0.6-4.1,1.2-6.1,1.8c-0.1,0-0.1,0-0.2,0.1c0.1,0,0.1,0,0.2,0c4.3,0,8.5,0,12.8,0c0.1,0,0.2,0,0.3,0
		c0.2,0,0.3,0.1,0.3,0.3c0,0.1,0,0.2,0,0.2c0,3,0,6.1,0,9.1c0,0.9-0.4,1.7-1.3,2.1C19.3,21.9,19,22,18.7,22c-1.6,0-3.1,0-4.7,0
		c-0.3,0-0.5-0.2-0.5-0.4c0-0.2,0.2-0.4,0.5-0.4c1.5,0,3,0,4.5,0c0.7,0,1.2-0.4,1.4-1.1c0-0.1,0.1-0.3,0.1-0.4c0-1.7,0-3.3,0-5
		c0-0.1,0-0.1,0-0.2c-5.1,0-10.2,0-15.3,0c0,0.1,0,0.1,0,0.2c0,1.7,0,3.3,0,5c0,0.9,0.6,1.5,1.5,1.5c1.5,0,2.9,0,4.4,0
		c0.1,0,0.1,0,0.2,0c0.3,0,0.4,0.2,0.4,0.4c0,0.2-0.2,0.4-0.4,0.4c-1.6,0-3.2,0-4.8,0c-1.1,0-2-1-2.1-2.1c0-1.6,0-3.2,0-4.8
		c0-1.4,0-2.9,0-4.3c0-0.1,0-0.2-0.1-0.4C3.7,9.7,3.5,9,3.3,8.3C2.9,7.1,3.6,5.9,4.8,5.6c4-1.2,7.9-2.3,11.9-3.4
		C16.8,2.1,17,2,17.1,2C17.3,2,17.4,2,17.6,2z M14.9,3.4C14.9,3.4,14.9,3.5,14.9,3.4c1,0.9,1.9,1.8,2.8,2.7c0,0,0.1,0.1,0.1,0
		c0.5-0.1,1-0.3,1.5-0.4c-0.2-0.7-0.4-1.4-0.7-2.1c-0.2-0.6-0.9-0.9-1.4-0.8C16.4,3,15.7,3.2,14.9,3.4z M8,9C8,9,8,9,8,9
		C7.1,8.1,6.2,7.2,5.3,6.3c0,0-0.1,0-0.1,0C4.3,6.5,3.9,7.2,4,7.9c0.1,0.7,0.4,1.3,0.5,2c0,0,0,0.1,0.1,0.1C5.7,9.6,6.9,9.3,8,9z
		 M16.6,13.7c1.2,0,2.3,0,3.4,0c0-1,0-1.9,0-2.9c-0.6,0-1.1,0-1.7,0c0,0-0.1,0-0.1,0.1C17.7,11.9,17.1,12.8,16.6,13.7z M4.7,10.9
		c0,1,0,1.9,0,2.9c0.5,0,1.1,0,1.6,0c0.1,0,0.2,0,0.3-0.2c0.5-0.8,1-1.7,1.4-2.5c0-0.1,0.1-0.1,0.1-0.2C7,10.9,5.9,10.9,4.7,10.9z
		 M16.9,6.4C16.8,6.4,16.8,6.4,16.9,6.4c-1-0.9-1.9-1.8-2.8-2.6c0,0-0.2-0.1-0.2,0c-0.6,0.2-1.2,0.3-1.7,0.5c-0.1,0-0.1,0-0.2,0.1
		c0.9,0.9,1.9,1.8,2.8,2.7c0,0,0.1,0,0.1,0C15.5,6.8,16.2,6.6,16.9,6.4z M13.9,7.3C13.9,7.3,13.9,7.2,13.9,7.3
		c-0.9-0.9-1.9-1.8-2.8-2.7c0,0-0.1,0-0.2,0c-0.3,0.1-0.6,0.2-0.9,0.2C9.7,4.9,9.4,5,9,5.1c0,0,0,0,0,0c0.9,0.9,1.8,1.8,2.7,2.6
		c0,0,0.1,0.1,0.2,0C12.6,7.7,13.2,7.5,13.9,7.3z M11,8.1C11,8.1,10.9,8.1,11,8.1c-1-0.9-1.9-1.8-2.8-2.7c0,0-0.1,0-0.2,0
		C7.6,5.6,7.1,5.7,6.7,5.8C6.5,5.9,6.3,5.9,6.1,6c0.1,0.1,0.1,0.1,0.2,0.2c0.7,0.7,1.4,1.4,2.1,2c0.2,0.2,0.3,0.4,0.6,0.5
		c0.2,0.1,0.5-0.1,0.7-0.2C10.1,8.4,10.5,8.3,11,8.1z M10.5,13.7C10.5,13.7,10.5,13.7,10.5,13.7c0.7,0,1.4,0,2,0
		c0.1,0,0.2-0.1,0.2-0.1c0.5-0.8,1-1.7,1.5-2.5c0,0,0-0.1,0.1-0.2c-0.1,0-0.1,0-0.2,0c-0.6,0-1.2,0-1.8,0c-0.1,0-0.2,0-0.3,0.2
		c-0.5,0.8-1,1.7-1.4,2.5C10.5,13.6,10.5,13.6,10.5,13.7z M13.5,13.7c0.7,0,1.3,0,2,0c0.1,0,0.2,0,0.3-0.2c0.5-0.8,1-1.7,1.4-2.5
		c0-0.1,0.1-0.1,0.1-0.2c-0.1,0-0.1,0-0.2,0c-0.6,0-1.2,0-1.8,0c-0.1,0-0.2,0-0.3,0.2c-0.5,0.8-1,1.7-1.5,2.5
		C13.6,13.6,13.6,13.6,13.5,13.7z M11.2,10.9c-0.7,0-1.4,0-2,0C9.1,10.9,9,10.9,9,11c-0.5,0.9-1,1.7-1.5,2.6c0,0,0,0.1-0.1,0.1
		c0.7,0,1.3,0,2,0c0.1,0,0.2,0,0.3-0.2c0.5-0.8,1-1.7,1.5-2.5C11.1,11,11.2,10.9,11.2,10.9z"/>
	<path class="st0" d="M10.9,17.8c0-0.6,0-1.3,0-1.9c0-0.4,0.3-0.6,0.7-0.4c1.1,0.6,2.2,1.3,3.3,1.9c0.4,0.2,0.4,0.6,0,0.8
		c-1.1,0.6-2.2,1.3-3.3,1.9c-0.4,0.2-0.7,0-0.7-0.4C10.8,19.1,10.9,18.5,10.9,17.8z M13.9,17.8c-0.8-0.4-1.5-0.9-2.2-1.3
		c0,0.9,0,1.7,0,2.6C12.4,18.7,13.1,18.3,13.9,17.8z"/>
	<path class="st0" d="M12.4,22c-0.2,0-0.4-0.2-0.4-0.4c0-0.2,0.2-0.4,0.4-0.4c0.2,0,0.4,0.2,0.4,0.4C12.7,21.8,12.6,22,12.4,22z"/>
</g>
</svg>
