<?xml version="1.0" encoding="utf-8"?>
<!-- Generator: Adobe Illustrator 26.0.0, SVG Export Plug-In . SVG Version: 6.00 Build 0)  -->
<svg version="1.1" id="web-grid" xmlns="http://www.w3.org/2000/svg" xmlns:xlink="http://www.w3.org/1999/xlink" x="0px" y="0px"
	 viewBox="0 0 24 24" style="enable-background:new 0 0 24 24;" xml:space="preserve">
<style type="text/css">
	.st0{fill:#333333;}
</style>
<g>
	<path class="st0" d="M15.9,17.2c0.3,0.7,0.8,1.2,1.5,1.5c0.3,0.1,0.5,0.2,0.8,0.3c0.2,0,0.3,0,0.5,0c0.7,0,1.1,0.4,1.1,1.1
		c0,0.1,0,0.3,0,0.4c0,0.3-0.1,0.4-0.4,0.4c0,0-0.1,0-0.1,0c-2.6,0-5.1,0-7.7,0c-0.1,0-0.1,0-0.2,0c-0.2,0-0.3-0.1-0.3-0.3
		c0-0.2,0.1-0.3,0.3-0.3c0.1,0,0.1,0,0.2,0c2.4,0,4.8,0,7.3,0c0.1,0,0.2,0,0.3,0c0-0.1,0-0.2,0-0.3c0-0.2-0.1-0.2-0.3-0.3
		c-0.1,0-0.1,0-0.2,0c-4.2,0-8.4,0-12.5,0c-0.5,0-0.6,0.2-0.5,0.6c0.1,0,0.1,0,0.2,0c1.4,0,2.8,0,4.3,0c0.1,0,0.1,0,0.2,0
		c0.2,0,0.3,0.2,0.3,0.3c0,0.2-0.1,0.3-0.3,0.3c-0.1,0-0.1,0-0.2,0c-1.6,0-3.1,0-4.7,0C5,20.9,5,20.8,5,20.5c0-0.1,0-0.3,0-0.4
		c0-0.6,0.4-1,1-1c1.2,0,2.1-0.6,2.8-1.6c0-0.1,0.1-0.1,0.1-0.2c-0.1,0-0.1,0-0.2,0c-1.2,0-2.4,0-3.5,0c-1.2,0-1.9-0.8-1.9-1.9
		c0-3.1,0-6.2,0-9.4c0-1,0.7-1.6,1.6-1.6c1.7,0,3.3,0,5,0c0.1,0,0.1,0,0.2,0c0.2,0,0.3,0.1,0.3,0.3c0,0.2-0.1,0.3-0.3,0.3
		c-0.1,0-0.1,0-0.2,0c-1.7,0-3.3,0-5,0c-0.7,0-1,0.4-1,1c0,3.1,0,6.2,0,9.3c0,0.8,0.5,1.3,1.4,1.3c4.9,0,9.9,0,14.8,0
		c0.7,0,1.1-0.4,1.1-1.1c0-0.9,0-1.9,0-2.8c0-0.1,0-0.1,0-0.2c0-0.2,0.1-0.3,0.3-0.3c0.2,0,0.3,0.1,0.3,0.3c0,0.2,0,0.3,0,0.5
		c0,0.8,0,1.7,0,2.5c0,1-0.7,1.6-1.6,1.6c-1.3,0-2.6,0-3.8,0C16,17.2,16,17.2,15.9,17.2z M8,19c2.9,0,5.8,0,8.7,0c0,0,0,0,0-0.1
		c-0.6-0.4-1.1-1-1.4-1.7c0-0.1-0.1-0.1-0.2-0.1c-1.8,0-3.6,0-5.4,0c-0.1,0-0.2,0-0.2,0.1c-0.1,0.2-0.2,0.3-0.2,0.5
		C8.9,18.3,8.5,18.7,8,19z"/>
	<path class="st0" d="M10.9,5.5c0-0.3-0.1-0.5-0.1-0.8c0-0.3,0-0.7,0-1C11,3,11.6,2.4,12.3,2.4c0.2,0,0.4,0,0.6,0
		c0.2,0,0.3,0.1,0.3,0.3c0,0.7,0,1.4,0,2.2c0,0.2-0.1,0.4-0.1,0.5c0.2,0.1,0.3,0.2,0.5,0.3C14,6,14.4,6.3,14.7,6.6
		c0.1,0.1,0.2,0.1,0.3,0.1c0.4-0.1,0.8-0.1,1.2-0.2c0.5-0.1,0.9,0.3,1,0.7c0.1,0.5-0.2,1-0.7,1c-0.6,0.1-1.1,0.1-1.7,0.2
		c-0.3,0.1-0.6,0-0.8-0.2c-0.1-0.1-0.3-0.2-0.5-0.3c0,0.2,0,0.4,0,0.6c0,0,0.1,0.1,0.1,0.1c0.5,0.3,1,0.7,1.5,1
		c0.1,0.1,0.2,0.2,0.2,0.4c0.1,0.7,0.2,1.4,0.2,2c0,0.1,0.1,0.2,0.2,0.2c0.5,0.3,0.7,0.7,0.8,1.2c0.1,0.4-0.1,0.5-0.4,0.5
		c-0.6,0-1.3,0-1.9,0c-0.2,0-0.4-0.1-0.4-0.3c0-0.2,0.1-0.3,0.4-0.3c0.6,0,1.1,0,1.7,0c-0.1-0.3-0.4-0.6-0.8-0.6c-0.3,0-0.6,0-0.9,0
		c-0.3,0-0.3-0.1-0.4-0.3c-0.1-0.5-0.2-1-0.3-1.5c0-0.1-0.1-0.2-0.2-0.2c-0.2-0.1-0.4-0.2-0.7-0.3c-0.2,0.5-0.5,0.9-0.7,1.3
		c-0.1,0.3-0.3,0.4-0.6,0.4c-0.7,0.1-1.4,0.1-2.1,0.2c-0.2,0-0.2,0.1-0.3,0.2c-0.3,0.5-0.7,0.8-1.3,0.8c-0.3,0-0.4-0.1-0.4-0.4
		c0-0.7,0-1.4,0-2c0-0.3,0.1-0.4,0.4-0.4c0.8,0,1.5-0.1,2.3-0.2c0.1,0,0.2-0.1,0.2-0.2c0.1-0.5,0.2-0.9,0.2-1.4
		c0-0.2,0.1-0.3,0.4-0.3c0.6,0,1.2,0,1.9,0c0.1,0,0.1,0,0.2,0c0-0.3,0-0.6,0-0.9c0-0.4,0.2-0.5,0.6-0.3c0.3,0.2,0.5,0.3,0.8,0.5
		c0.2,0.1,0.4,0.1,0.6,0.1c0.5-0.1,1-0.1,1.4-0.2c0.2,0,0.3-0.2,0.3-0.3c0-0.2-0.2-0.3-0.4-0.3c-0.4,0.1-0.9,0.1-1.3,0.2
		c-0.2,0-0.3,0-0.4-0.1c-0.4-0.3-0.8-0.7-1.3-1c-0.1-0.1-0.2-0.1-0.3-0.1c-0.7,0-1.4,0-2.1,0c-0.5,0-0.9,0.2-1.4,0.2
		C9.3,6.3,9.1,6.5,9,6.8C8.9,7.2,8.7,7.7,8.5,8.1C8.5,8.2,8.5,8.4,8.6,8.4c0.2,0.1,0.2,0,0.3-0.2c0.2-0.3,0.4-0.7,0.6-1
		C9.7,7.1,9.8,7,10,7c0.3,0,0.5,0,0.8,0c0.3,0,0.4,0.1,0.4,0.4c0,0.1,0,0.1,0,0.2c0,0.2-0.1,0.3-0.3,0.3c-0.2,0-0.3-0.1-0.3-0.2
		c0,0,0,0,0-0.1c0,0,0,0,0,0C10.2,7.6,10,7.7,9.9,8C9.8,8.2,9.6,8.4,9.5,8.7C9.2,9.1,8.8,9.2,8.4,9C8,8.8,7.8,8.4,8,7.9
		c0.2-0.6,0.5-1.2,0.7-1.8C8.7,5.9,8.8,5.8,9,5.8C9.6,5.7,10.3,5.6,10.9,5.5z M15,12.3c-0.1-0.6-0.1-1.3-0.2-1.9
		c0-0.1-0.1-0.1-0.1-0.2c-0.5-0.3-1-0.6-1.4-1c0,0-0.1-0.1-0.1-0.1c-0.7,0-1.4,0-2.1,0c0,0.1,0,0.1,0,0.2c-0.1,0.4-0.1,0.8-0.2,1.3
		c-0.1,0.4-0.1,0.4-0.5,0.5c-0.4,0.1-0.7,0.1-1.1,0.2c0,0.2,0,0.4,0,0.6c0,0,0.1,0,0.1,0c0.7-0.1,1.4-0.1,2-0.2
		c0.1,0,0.1-0.1,0.2-0.1c0.3-0.5,0.5-1,0.8-1.5c0.1-0.2,0.3-0.3,0.5-0.2c0.3,0.2,0.6,0.3,0.9,0.5c0.3,0.1,0.4,0.3,0.5,0.6
		c0,0.4,0.1,0.9,0.2,1.3C14.6,12.3,14.8,12.3,15,12.3z M11.4,4.3c0,0.2,0,0.4,0,0.6c0,0.3,0.3,0.6,0.6,0.6c0.3,0,0.6-0.2,0.7-0.5
		c0-0.2,0-0.5,0-0.7C12.2,4.3,11.8,4.3,11.4,4.3z M8,12.8c0.5-0.1,0.7-0.7,0.6-1.4c-0.2,0-0.4,0-0.6,0C8,11.9,8,12.3,8,12.8z
		 M12.6,3c-0.6,0-1.1,0.2-1.1,0.6c0.4,0,0.8,0,1.1,0C12.6,3.4,12.6,3.3,12.6,3z"/>
	<path class="st0" d="M14.5,15.4c-1.4,0-2.8,0-4.2,0c-0.1,0-0.2,0-0.3,0.1C9.9,15.8,9.6,16,9.3,16c-0.4,0-0.6-0.2-0.8-0.5
		c-0.1-0.1-0.1-0.1-0.2-0.1c-0.6,0-1.1,0-1.7,0c-0.2,0-0.4-0.1-0.4-0.3c0-0.2,0.1-0.3,0.4-0.3c0.6,0,1.1,0,1.7,0
		c0.1,0,0.2,0,0.2-0.1c0.2-0.3,0.4-0.5,0.8-0.5c0.4,0,0.6,0.2,0.8,0.5c0.1,0.1,0.1,0.1,0.3,0.1c2.8,0,5.6,0,8.3,0c0.1,0,0.1,0,0.2,0
		c0.2,0,0.3,0.1,0.3,0.3c0,0.2-0.1,0.3-0.3,0.3c-0.1,0-0.1,0-0.2,0C17.3,15.4,15.9,15.4,14.5,15.4z M9.6,15c0-0.2-0.1-0.3-0.3-0.3
		C9.1,14.7,9,14.9,9,15c0,0.2,0.1,0.3,0.3,0.3C9.4,15.4,9.6,15.2,9.6,15z"/>
	<path class="st0" d="M20.4,11.1c0,0.8,0,1.6,0,2.4c0,0.3-0.1,0.4-0.4,0.4c-0.4,0-0.7,0-1.1,0c-0.3,0-0.4-0.1-0.4-0.4
		c0-1.6,0-3.2,0-4.8c0-0.3,0.1-0.4,0.4-0.4c0.4,0,0.7,0,1.1,0c0.3,0,0.4,0.1,0.4,0.4C20.4,9.5,20.4,10.3,20.4,11.1z M19.1,8.9
		c0,0.2,0,0.4,0,0.6c0.2,0,0.4,0,0.6,0c0-0.2,0-0.4,0-0.6C19.5,8.9,19.3,8.9,19.1,8.9z M19.7,10.1c-0.2,0-0.4,0-0.6,0
		c0,0.2,0,0.4,0,0.6c0.2,0,0.4,0,0.6,0C19.7,10.5,19.7,10.3,19.7,10.1z M19.7,11.4c-0.2,0-0.4,0-0.6,0c0,0.2,0,0.4,0,0.6
		c0.2,0,0.4,0,0.6,0C19.7,11.8,19.7,11.6,19.7,11.4z M19.1,12.6c0,0.2,0,0.4,0,0.6c0.2,0,0.4,0,0.6,0c0-0.2,0-0.4,0-0.6
		C19.5,12.6,19.3,12.6,19.1,12.6z"/>
	<path class="st0" d="M17.2,4.3c0.9,0,1.8,0,2.8,0c1,0,1.6,0.7,1.6,1.6c0,1.8,0,3.6,0,5.3c0,0.1,0,0.1,0,0.2c0,0.2-0.1,0.3-0.3,0.3
		c-0.2,0-0.3-0.1-0.3-0.3c0-0.1,0-0.1,0-0.2c0-1.8,0-3.5,0-5.3c0-0.7-0.4-1-1-1c-1.9,0-3.7,0-5.6,0c-0.1,0-0.1,0-0.2,0
		c-0.2,0-0.2-0.1-0.2-0.3c0-0.2,0.1-0.3,0.2-0.3c0.1,0,0.1,0,0.2,0C15.3,4.3,16.2,4.3,17.2,4.3z"/>
	<path class="st0" d="M5.3,7.7c0.2,0,0.4,0,0.6,0c0.2,0,0.3,0.1,0.3,0.3c0,0.2-0.1,0.3-0.3,0.3c-0.4,0-0.8,0-1.2,0
		C4.5,8.3,4.3,8.1,4.3,8c0-0.2,0.1-0.3,0.3-0.3C4.9,7.7,5.1,7.7,5.3,7.7z"/>
	<path class="st0" d="M5.3,9.5c-0.2,0-0.4,0-0.6,0c-0.2,0-0.3-0.1-0.3-0.3c0-0.2,0.1-0.3,0.3-0.3c0.4,0,0.8,0,1.2,0
		c0.2,0,0.3,0.1,0.3,0.3c0,0.2-0.1,0.3-0.3,0.3C5.7,9.5,5.5,9.5,5.3,9.5z"/>
	<path class="st0" d="M5.2,10.7c-0.2,0-0.4,0-0.6,0c-0.2,0-0.3-0.1-0.3-0.3c0-0.2,0.1-0.3,0.3-0.3c0.4,0,0.8,0,1.2,0
		c0.2,0,0.3,0.1,0.3,0.3c0,0.2-0.1,0.3-0.3,0.3C5.7,10.7,5.4,10.7,5.2,10.7z"/>
	<path class="st0" d="M5.1,12c-0.1,0-0.3,0-0.4,0c-0.2,0-0.3-0.1-0.3-0.3c0-0.2,0.1-0.3,0.3-0.3c0.3,0,0.6,0,0.9,0
		c0.2,0,0.3,0.1,0.3,0.3c0,0.2-0.1,0.3-0.3,0.3C5.4,12,5.2,12,5.1,12z"/>
	<path class="st0" d="M5,13.2c-0.1,0-0.2,0-0.3,0c-0.2,0-0.3-0.1-0.3-0.3c0-0.2,0.1-0.3,0.3-0.3c0.2,0,0.4,0,0.7,0
		c0.2,0,0.3,0.1,0.3,0.3c0,0.2-0.1,0.3-0.3,0.3C5.2,13.2,5.1,13.2,5,13.2z"/>
</g>
</svg>
